REM DIRINDEX 1\2,1\3,1\4,1\5,1\6
REM DIRNAME cjc030,folder01,folder02,folder03,folder04,folder05
TITLE ""
FILE "Disc2Track48.mp3" MP3
  TRACK 01 AUDIO
    TITLE "3:cjc030_03480"
    INDEX 01 00:00:00
  TRACK 02 AUDIO
    TITLE "0:"
    INDEX 01 00:01:19
  TRACK 03 AUDIO
    TITLE "4:cjc030_03481"
    INDEX 01 00:01:30
  TRACK 04 AUDIO
    TITLE "0:"
    INDEX 01 00:04:38
  TRACK 05 AUDIO
    TITLE "5:cjc030_03482"
    INDEX 01 00:04:46
  TRACK 06 AUDIO
    TITLE "0:"
    INDEX 01 00:05:73
  TRACK 07 AUDIO
    TITLE "6:cjc030_03483"
    INDEX 01 00:06:08
  TRACK 08 AUDIO
    TITLE "0:"
    INDEX 01 00:10:04
  TRACK 09 AUDIO
    TITLE "3:cjc030_03484"
    INDEX 01 00:10:51
  TRACK 10 AUDIO
    TITLE "0:"
    INDEX 01 00:12:05
  TRACK 11 AUDIO
    TITLE "4:cjc030_03485"
    INDEX 01 00:12:14
  TRACK 12 AUDIO
    TITLE "0:"
    INDEX 01 00:14:64
  TRACK 13 AUDIO
    TITLE "5:cjc030_03486"
    INDEX 01 00:14:72
  TRACK 14 AUDIO
    TITLE "0:"
    INDEX 01 00:16:26
  TRACK 15 AUDIO
    TITLE "3:cjc030_03487"
    INDEX 01 00:17:10
  TRACK 16 AUDIO
    TITLE "0:"
    INDEX 01 00:18:33
  TRACK 17 AUDIO
    TITLE "4:cjc030_03488"
    INDEX 01 00:18:39
  TRACK 18 AUDIO
    TITLE "0:"
    INDEX 01 00:20:43
  TRACK 19 AUDIO
    TITLE "5:cjc030_03489"
    INDEX 01 00:20:53
  TRACK 20 AUDIO
    TITLE "0:"
    INDEX 01 00:22:01
  TRACK 21 AUDIO
    TITLE "6:cjc030_03490"
    INDEX 01 00:22:13
  TRACK 22 AUDIO
    TITLE "0:"
    INDEX 01 00:24:31
  TRACK 23 AUDIO
    TITLE "3:cjc030_03491"
    INDEX 01 00:25:03
  TRACK 24 AUDIO
    TITLE "0:"
    INDEX 01 00:26:09
  TRACK 25 AUDIO
    TITLE "4:cjc030_03492"
    INDEX 01 00:26:18
  TRACK 26 AUDIO
    TITLE "0:"
    INDEX 01 00:28:15
  TRACK 27 AUDIO
    TITLE "5:cjc030_03493"
    INDEX 01 00:28:25
  TRACK 28 AUDIO
    TITLE "0:"
    INDEX 01 00:29:29
  TRACK 29 AUDIO
    TITLE "3:cjc030_03494"
    INDEX 01 00:30:12
  TRACK 30 AUDIO
    TITLE "0:"
    INDEX 01 00:31:35
  TRACK 31 AUDIO
    TITLE "4:cjc030_03495"
    INDEX 01 00:31:45
  TRACK 32 AUDIO
    TITLE "0:"
    INDEX 01 00:33:50
  TRACK 33 AUDIO
    TITLE "5:cjc030_03496"
    INDEX 01 00:33:60
  TRACK 34 AUDIO
    TITLE "0:"
    INDEX 01 00:35:08
  TRACK 35 AUDIO
    TITLE "6:cjc030_03497"
    INDEX 01 00:35:21
  TRACK 36 AUDIO
    TITLE "0:"
    INDEX 01 00:39:51
  TRACK 37 AUDIO
    TITLE "3:cjc030_03498"
    INDEX 01 00:40:24
  TRACK 38 AUDIO
    TITLE "0:"
    INDEX 01 00:41:44
  TRACK 39 AUDIO
    TITLE "4:cjc030_03499"
    INDEX 01 00:41:51
  TRACK 40 AUDIO
    TITLE "0:"
    INDEX 01 00:42:72
  TRACK 41 AUDIO
    TITLE "5:cjc030_03500"
    INDEX 01 00:43:05
  TRACK 42 AUDIO
    TITLE "0:"
    INDEX 01 00:44:24
  TRACK 43 AUDIO
    TITLE "3:cjc030_03501"
    INDEX 01 00:45:00
  TRACK 44 AUDIO
    TITLE "0:"
    INDEX 01 00:46:51
  TRACK 45 AUDIO
    TITLE "4:cjc030_03502"
    INDEX 01 00:46:60
  TRACK 46 AUDIO
    TITLE "0:"
    INDEX 01 00:47:74
  TRACK 47 AUDIO
    TITLE "5:cjc030_03503"
    INDEX 01 00:48:06
  TRACK 48 AUDIO
    TITLE "0:"
    INDEX 01 00:49:57
  TRACK 49 AUDIO
    TITLE "6:cjc030_03504"
    INDEX 01 00:49:69
  TRACK 50 AUDIO
    TITLE "0:"
    INDEX 01 00:55:57
  TRACK 51 AUDIO
    TITLE "3:cjc030_03505"
    INDEX 01 00:56:29
  TRACK 52 AUDIO
    TITLE "0:"
    INDEX 01 00:57:64
  TRACK 53 AUDIO
    TITLE "4:cjc030_03506"
    INDEX 01 00:58:01
  TRACK 54 AUDIO
    TITLE "0:"
    INDEX 01 01:00:23
  TRACK 55 AUDIO
    TITLE "5:cjc030_03507"
    INDEX 01 01:00:33
  TRACK 56 AUDIO
    TITLE "0:"
    INDEX 01 01:01:70
  TRACK 57 AUDIO
    TITLE "6:cjc030_03508"
    INDEX 01 01:02:05
  TRACK 58 AUDIO
    TITLE "0:"
    INDEX 01 01:07:00
  TRACK 59 AUDIO
    TITLE "3:cjc030_03509"
    INDEX 01 01:07:47
  TRACK 60 AUDIO
    TITLE "0:"
    INDEX 01 01:08:56
  TRACK 61 AUDIO
    TITLE "4:cjc030_03510"
    INDEX 01 01:08:66
  TRACK 62 AUDIO
    TITLE "0:"
    INDEX 01 01:11:72
  TRACK 63 AUDIO
    TITLE "5:cjc030_03511"
    INDEX 01 01:12:07
  TRACK 64 AUDIO
    TITLE "0:"
    INDEX 01 01:13:16
  TRACK 65 AUDIO
    TITLE "6:cjc030_03512"
    INDEX 01 01:13:30
  TRACK 66 AUDIO
    TITLE "0:"
    INDEX 01 01:17:41
  TRACK 67 AUDIO
    TITLE "3:cjc030_03513"
    INDEX 01 01:18:13
  TRACK 68 AUDIO
    TITLE "0:"
    INDEX 01 01:19:25
  TRACK 69 AUDIO
    TITLE "4:cjc030_03514"
    INDEX 01 01:19:32
  TRACK 70 AUDIO
    TITLE "0:"
    INDEX 01 01:21:18
  TRACK 71 AUDIO
    TITLE "5:cjc030_03515"
    INDEX 01 01:21:27
  TRACK 72 AUDIO
    TITLE "0:"
    INDEX 01 01:22:37
  TRACK 73 AUDIO
    TITLE "3:cjc030_03516"
    INDEX 01 01:23:18
  TRACK 74 AUDIO
    TITLE "0:"
    INDEX 01 01:24:32
  TRACK 75 AUDIO
    TITLE "4:cjc030_03517"
    INDEX 01 01:24:41
  TRACK 76 AUDIO
    TITLE "0:"
    INDEX 01 01:27:10
  TRACK 77 AUDIO
    TITLE "5:cjc030_03518"
    INDEX 01 01:27:20
  TRACK 78 AUDIO
    TITLE "0:"
    INDEX 01 01:28:33
  TRACK 79 AUDIO
    TITLE "6:cjc030_03519"
    INDEX 01 01:28:45
  TRACK 80 AUDIO
    TITLE "0:"
    INDEX 01 01:32:19
  TRACK 81 AUDIO
    TITLE "3:cjc030_03520"
    INDEX 01 01:32:66
  TRACK 82 AUDIO
    TITLE "0:"
    INDEX 01 01:34:14
  TRACK 83 AUDIO
    TITLE "4:cjc030_03521"
    INDEX 01 01:34:22
  TRACK 84 AUDIO
    TITLE "0:"
    INDEX 01 01:36:58
  TRACK 85 AUDIO
    TITLE "5:cjc030_03522"
    INDEX 01 01:36:68
  TRACK 86 AUDIO
    TITLE "0:"
    INDEX 01 01:38:16
